<svg width="24" height="24" viewBox="0 0 24 24" fill="none" xmlns="http://www.w3.org/2000/svg">
<g id="Hicon / Linear / Bag 7">
<g id="Bag 6">
<path id="Vector" d="M15.7874 7.80952H8.16836M15.7874 7.80952H16.7845C18.3736 7.80952 19.1682 7.80952 19.6225 8.31707C20.0767 8.82462 19.989 9.61431 19.8135 11.1937L19.5881 13.2223C19.2299 16.4462 19.0508 18.0581 17.966 19.0291C16.8812 20 15.2468 20 11.9779 20C8.70901 20 7.07457 20 5.98977 19.0291C4.90497 18.0581 4.72587 16.4462 4.36766 13.2223L4.14226 11.1937C3.96677 9.61431 3.87903 8.82462 4.33331 8.31707C4.78758 7.80952 5.58214 7.80952 7.17124 7.80952H8.16836M15.7874 7.80952C15.7874 5.70558 14.0818 4 11.9779 4C9.92589 4 8.25283 5.62239 8.17146 7.65441C8.1694 7.70586 8.16836 7.75757 8.16836 7.80952" stroke="white" stroke-width="1.5"/>
<g id="Vector_2">
<path d="M16.5491 10.8571C16.5491 11.2779 16.208 11.619 15.7872 11.619C15.3664 11.619 15.0253 11.2779 15.0253 10.8571C15.0253 10.4363 15.3664 10.0952 15.7872 10.0952C16.208 10.0952 16.5491 10.4363 16.5491 10.8571Z" fill="white"/>
<path d="M8.93006 10.8571C8.93006 11.2779 8.58894 11.619 8.16815 11.619C7.74737 11.619 7.40625 11.2779 7.40625 10.8571C7.40625 10.4363 7.74737 10.0952 8.16815 10.0952C8.58894 10.0952 8.93006 10.4363 8.93006 10.8571Z" fill="white"/>
</g>
</g>
</g>
</svg>
