<svg width="20" height="20" viewBox="0 0 20 20" fill="none" xmlns="http://www.w3.org/2000/svg">
<g id="Hicon / Linear / Location">
<g id="Location">
<path id="Vector" d="M11.6986 16.354L11.1084 15.8912L11.6986 16.354ZM7.72703 16.354L7.13686 16.8168L7.72703 16.354ZM9.7128 18V17.25V18ZM14.6756 9.14747C14.6756 9.96409 14.2439 11.0945 13.5278 12.3606C12.8283 13.5973 11.9218 14.8539 11.1084 15.8912L12.2887 16.8168C13.1247 15.7508 14.0818 14.4279 14.8334 13.0991C15.5684 11.7996 16.1756 10.3783 16.1756 9.14747H14.6756ZM8.31721 15.8912C7.50379 14.8539 6.59733 13.5973 5.8978 12.3606C5.18167 11.0945 4.75 9.96409 4.75 9.14747H3.25C3.25 10.3783 3.85715 11.7996 4.59219 13.0991C5.34382 14.4279 6.30088 15.7508 7.13686 16.8168L8.31721 15.8912ZM4.75 9.14747C4.75 6.11378 7.02277 3.75 9.7128 3.75V2.25C6.09265 2.25 3.25 5.39084 3.25 9.14747H4.75ZM9.7128 3.75C12.4028 3.75 14.6756 6.11378 14.6756 9.14747H16.1756C16.1756 5.39084 13.3329 2.25 9.7128 2.25V3.75ZM11.1084 15.8912C10.6617 16.4608 10.3833 16.8117 10.1393 17.0333C9.9274 17.2259 9.81785 17.25 9.7128 17.25V18.75C10.3027 18.75 10.7558 18.4998 11.1479 18.1437C11.5079 17.8167 11.8749 17.3445 12.2887 16.8168L11.1084 15.8912ZM7.13686 16.8168C7.55068 17.3445 7.91773 17.8167 8.2777 18.1437C8.66979 18.4998 9.12286 18.75 9.7128 18.75V17.25C9.60774 17.25 9.4982 17.2259 9.28628 17.0333C9.04224 16.8117 8.76391 16.4608 8.31721 15.8912L7.13686 16.8168ZM6.8205 9.4269C6.8205 11.0243 8.11542 12.3192 9.7128 12.3192V10.8192C8.94385 10.8192 8.3205 10.1958 8.3205 9.4269H6.8205ZM9.7128 12.3192C11.3102 12.3192 12.6051 11.0243 12.6051 9.4269H11.1051C11.1051 10.1958 10.4817 10.8192 9.7128 10.8192V12.3192ZM12.6051 9.4269C12.6051 7.82952 11.3102 6.5346 9.7128 6.5346V8.0346C10.4817 8.0346 11.1051 8.65795 11.1051 9.4269H12.6051ZM9.7128 6.5346C8.11542 6.5346 6.8205 7.82952 6.8205 9.4269H8.3205C8.3205 8.65795 8.94385 8.0346 9.7128 8.0346V6.5346Z" fill="white"/>
</g>
</g>
</svg>
