<svg width="20" height="20" viewBox="0 0 20 20" fill="none" xmlns="http://www.w3.org/2000/svg">
<g id="Hicon / Linear / Location">
<g id="Location">
<path id="Vector" d="M11.6986 16.3539L11.1084 15.8911L11.6986 16.3539ZM7.72703 16.3539L7.13686 16.8168L7.72703 16.3539ZM9.7128 17.9999V17.2499V17.9999ZM14.6756 9.1474C14.6756 9.96403 14.2439 11.0944 13.5278 12.3605C12.8283 13.5972 11.9218 14.8539 11.1084 15.8911L12.2887 16.8168C13.1247 15.7507 14.0818 14.4278 14.8334 13.099C15.5684 11.7995 16.1756 10.3783 16.1756 9.1474H14.6756ZM8.31721 15.8911C7.50379 14.8539 6.59733 13.5972 5.8978 12.3605C5.18167 11.0944 4.75 9.96403 4.75 9.1474H3.25C3.25 10.3783 3.85715 11.7995 4.59219 13.099C5.34382 14.4278 6.30088 15.7507 7.13686 16.8168L8.31721 15.8911ZM4.75 9.1474C4.75 6.11372 7.02277 3.74994 9.7128 3.74994V2.24994C6.09265 2.24994 3.25 5.39078 3.25 9.1474H4.75ZM9.7128 3.74994C12.4028 3.74994 14.6756 6.11372 14.6756 9.1474H16.1756C16.1756 5.39078 13.3329 2.24994 9.7128 2.24994V3.74994ZM11.1084 15.8911C10.6617 16.4608 10.3833 16.8116 10.1393 17.0333C9.9274 17.2258 9.81785 17.2499 9.7128 17.2499V18.7499C10.3027 18.7499 10.7558 18.4998 11.1479 18.1436C11.5079 17.8166 11.8749 17.3445 12.2887 16.8168L11.1084 15.8911ZM7.13686 16.8168C7.55068 17.3445 7.91773 17.8166 8.2777 18.1436C8.66979 18.4998 9.12286 18.7499 9.7128 18.7499V17.2499C9.60774 17.2499 9.4982 17.2258 9.28628 17.0333C9.04224 16.8116 8.76391 16.4608 8.31721 15.8911L7.13686 16.8168ZM6.8205 9.42684C6.8205 11.0242 8.11542 12.3191 9.7128 12.3191V10.8191C8.94385 10.8191 8.3205 10.1958 8.3205 9.42684H6.8205ZM9.7128 12.3191C11.3102 12.3191 12.6051 11.0242 12.6051 9.42684H11.1051C11.1051 10.1958 10.4817 10.8191 9.7128 10.8191V12.3191ZM12.6051 9.42684C12.6051 7.82946 11.3102 6.53454 9.7128 6.53454V8.03454C10.4817 8.03454 11.1051 8.65789 11.1051 9.42684H12.6051ZM9.7128 6.53454C8.11542 6.53454 6.8205 7.82946 6.8205 9.42684H8.3205C8.3205 8.65789 8.94385 8.03454 9.7128 8.03454V6.53454Z" fill="#1C2E1D"/>
</g>
</g>
</svg>
